<?xml version="1.0"?>
<svg xmlns="http://www.w3.org/2000/svg" xmlns:xlink="http://www.w3.org/1999/xlink" version="1.1" viewBox="0 0 224 224" width="30px" height="30px"><g fill="none" fill-rule="nonzero" stroke="none" stroke-width="1" stroke-linecap="butt" stroke-linejoin="miter" stroke-miterlimit="10" stroke-dasharray="" stroke-dashoffset="0" font-family="none" font-weight="none" font-size="none" text-anchor="none" style="mix-blend-mode: normal"><path d="M0,224v-224h224v224z" fill="none"/><g fill="#fdb713"><path d="M74.65208,22.4c-28.81387,0 -52.25208,23.45992 -52.25208,52.28125v74.66667c0,28.81387 23.45992,52.25208 52.28125,52.25208h74.66667c28.81387,0 52.25208,-23.45992 52.25208,-52.28125v-74.66667c0,-28.81387 -23.45992,-52.25208 -52.28125,-52.25208zM164.26667,52.26667c4.1216,0 7.46667,3.34507 7.46667,7.46667c0,4.1216 -3.34507,7.46667 -7.46667,7.46667c-4.1216,0 -7.46667,-3.34507 -7.46667,-7.46667c0,-4.1216 3.34507,-7.46667 7.46667,-7.46667zM112,67.2c24.7072,0 44.8,20.0928 44.8,44.8c0,24.7072 -20.0928,44.8 -44.8,44.8c-24.7072,0 -44.8,-20.0928 -44.8,-44.8c0,-24.7072 20.0928,-44.8 44.8,-44.8zM112,82.13333c-16.4949,0 -29.86667,13.37176 -29.86667,29.86667c0,16.4949 13.37176,29.86667 29.86667,29.86667c16.4949,0 29.86667,-13.37176 29.86667,-29.86667c0,-16.4949 -13.37176,-29.86667 -29.86667,-29.86667z"/></g></g></svg>
