<svg height="512pt" viewBox="0 -97 512 511" width="512pt" xmlns="http://www.w3.org/2000/svg"><path d="m54.996094 114.351562c1.8125 1.390626 3.949218 2.0625 6.070312 2.0625 3.003906 0 5.976563-1.347656 7.949219-3.917968l.265625-.347656c3.355469-4.386719 2.523438-10.660157-1.863281-14.015626-4.382813-3.359374-10.660157-2.523437-14.019531 1.859376l-.265626.347656c-3.355468 4.382812-2.523437 10.65625 1.863282 14.011718zm0 0"/><path d="m442.234375 246.5h-.269531c-5.523438 0-10 4.476562-10 10s4.476562 10 10 10h.269531c5.523437 0 10-4.476562 10-10s-4.476563-10-10-10zm0 0"/><path d="m437.019531 75.480469c-48.351562-48.351563-112.640625-74.980469-181.019531-74.980469-12.449219 0-24.796875.910156-36.957031 2.679688-.375.035156-.742188.089843-1.105469.164062-49.707031 7.441406-96.277344 29.355469-133.957031 63.5625-4.089844 3.710938-4.394531 10.035156-.683594 14.125 3.714844 4.089844 10.039063 4.394531 14.125.683594 2.210937-2.007813 4.460937-3.953125 6.734375-5.863282l12.34375 21.382813c-22.234375 14.503906-41.265625 33.53125-55.765625 55.765625l-13.035156-7.523438c1.835937-3.4375 3.75-6.832031 5.757812-10.179687 2.84375-4.738281 1.304688-10.878906-3.429687-13.71875-4.738282-2.84375-10.878906-1.304687-13.71875 3.429687-3.917969 6.53125-7.523438 13.226563-10.828125 20.058594-.050781.109375-.109375.21875-.15625.328125-16.617188 34.488281-25.324219 72.464844-25.324219 111.105469 0 5.523438 4.476562 10 10 10h30c5.523438 0 10-4.476562 10-10 0-93.738281 76.261719-170 170-170 36.15625 0 71.402344 11.589844 100.40625 32.824219l-80.550781 80.550781c-6.347657-2.234375-12.996094-3.375-19.855469-3.375-33.085938 0-60 26.917969-60 60 0 33.085938 26.914062 60 60 60 33.082031 0 60-26.914062 60-60 0-6.859375-1.140625-13.507812-3.375-19.855469l80.550781-80.550781c21.234375 29.007812 32.824219 64.253906 32.824219 100.40625 0 5.523438 4.476562 10 10 10s10-4.476562 10-10c0-30.117188-7.207031-59.671875-20.703125-86.199219l66.898437-38.621093c21.015626 33.582031 33.832032 72.792968 35.597657 114.820312h-20.828125c-5.523438 0-10 4.476562-10 10s4.476562 10 10 10h31.035156c5.523438 0 10-4.476562 10-10 0-68.378906-26.628906-132.667969-74.980469-181.019531zm-406.757812 171.019531h-10.050781c1.210937-28.667969 7.609374-56.769531 18.8125-82.9375l11.691406 6.75c-11.800782 23.085938-19.03125 48.878906-20.453125 76.1875zm306.269531-211.835938-30.332031 52.535157c-23.582031-11.996094-49.558594-19.011719-76.199219-20.421875v-44.839844c8.589844-.945312 17.265625-1.4375 26-1.4375 28.269531 0 55.386719 5.007812 80.53125 14.164062zm-216.398438 28.863282c27-19.039063 57.589844-32.117188 89.867188-38.507813v41.746094c-27.308594 1.425781-53.105469 8.648437-76.1875 20.449219zm242.480469 58.84375-138.371093 138.371094c-2.296876 2.300781-6.183594 2.300781-8.484376 0-2.300781-2.296876-2.300781-6.183594 0-8.484376l138.371094-138.371093c1.121094-1.121094 2.628906-1.738281 4.242188-1.738281 1.613281 0 3.121094.617187 4.242187 1.738281 1.121094 1.121093 1.738281 2.628906 1.738281 4.242187 0 1.613282-.617187 3.121094-1.738281 4.242188zm-102.613281 134.128906c0 22.054688-17.945312 40-40 40s-40-17.945312-40-40 17.945312-40 40-40c1.042969 0 2.074219.054688 3.097656.132812l-21.480468 21.484376c-10.136719 10.136718-10.136719 26.628906 0 36.769531 5.066406 5.066406 11.726562 7.601562 18.382812 7.601562 6.660156 0 13.316406-2.535156 18.386719-7.601562l21.484375-21.484375c.078125 1.027344.128906 2.058594.128906 3.097656zm119.304688-103.519531c-2.476563-3.8125-5.085938-7.539063-7.839844-11.171875l5.289062-5.292969c4.898438-4.898437 7.597656-11.429687 7.597656-18.386719 0-6.957031-2.699218-13.484375-7.597656-18.382812-4.898437-4.898438-11.425781-7.597656-18.382812-7.597656-6.957032 0-13.488282 2.699218-18.386719 7.597656l-5.292969 5.289062c-3.632812-2.753906-7.359375-5.363281-11.171875-7.839844l31.652344-54.824218c35.574219 16.542968 66.367187 41.691406 89.683594 72.761718zm0 0"/></svg>